<?xml version="1.0" encoding="utf-8"?>

<!DOCTYPE svg PUBLIC "-//W3C//DTD SVG 1.1//EN" "http://www.w3.org/Graphics/SVG/1.1/DTD/svg11.dtd">
<svg version="1.1" id="Layer_1" xmlns="http://www.w3.org/2000/svg" xmlns:xlink="http://www.w3.org/1999/xlink" x="0px" y="0px"
	 viewBox="0 0 1065.028 1661.065" enable-background="new 0 0 1065.028 1661.065" xml:space="preserve">
<path fill="rgb(41, 20, 2)" d="M531.141,30.532c1.078,3.262,8.461,250.837,8.869,279.185c18.539-86.858,46.486-132.087,54.1-275.5l0.939-0.008
	c-1.464,57.601,4.325,72.959-19.609,181.379c-7.635,33.57-21.606,83.234-27.949,135.052c-1.032,8.775-5.514,49.107-4.734,57.856
	c0.353,12.564,3.511,160.752,4.285,169.59c1.158-10.008,31.615-128.858,78.774-254.022c3.565-8.635,8.962-39.386,9.335-60.341
	c3.832-69.29-10.032-117.687,4.845-208.981c0.355,0.008,1.057,0.039,1.412,0.047c-9.696,76.466,4.355,128.94,3.188,219.389
	c0.336-0.789,74.323-180.079,86.192-183.549c-1.774,5.581-53.772,106.895-120.067,332.827
	c31.158-31.521,80.97-53.104,117.124-57.682c-0.45,0.805-1.097,1.357-1.941,1.641c-71.376,23.295-115.484,68.711-128.123,102.486
	c-10.351,40.265-42.107,169.615-44.204,209.194c-4.034,11.354-3.203,27.887-2.982,49.789c0,0.001,2.427,106.86,2.427,106.861
	c1.603,45.98-4.529,38.257,18.242-0.484c3.37-5.734,6.504-11.608,9.386-17.603c6.425-13.364,31.417-49.935,33.207-56.001
	c20.067-68.008,30.406-140.369,36.43-171.145c12.904-81.08,30.296-123.384,31.279-126.679c0.426-0.118,1.278-0.355,1.704-0.481
	c-12.831,49.196-18.691,116.266-21.913,141.506c1.831-7.914,7.386-14.322,9.824-22.015c0.252-0.253,0.758-0.765,1.01-1.026
	c33.725-62.061,53.391-82.209,68.035-118.213c0.71-1.649,1.089-3.669,2.872-4.529c-6.44,30.262-37.871,79.724-60.633,129.52
	l-0.568,0.142c0.024,0.276,0.063,0.836,0.087,1.12c-9.501,17.748-24.726,59.209-33.71,120.532c0,0,26.12-40.383,55.211-77.497
	c28.457-36.305,49.016-55.522,68.178-195.463c10.793-66.446-38.172-120.416-32.376-209.888h0.75
	c1.776,62.118,27.498,105.395,39.186,150.076c17.541-119.971,20.655-83.191-1.578-180.448c-6.279-30.044-6.095-66.012-4.324-80.471
	c0.308-0.205,0.931-0.623,1.247-0.829c2.564,86.808,13.03,89.829,24.604,145.862c0.217-0.823,22.801-89.939,30.972-92.212
	c-53.31,185.387-29.645,245.7-60.972,379.446c42.023-50.083,72.256-85.008,72.256-85.008
	c29.16-49.971,24.688-146.433,56.561-209.367c1.089-1.933,1.689-4.537,4.001-5.389c-0.852,3.338-2.509,6.376-3.693,9.595
	c-21.052,54.694-21.21,135.741-35.248,182.341c0.775-0.789,78.849-83.065,97.523-90.808c0,0-58.788,54.464-121.187,135.446
	c46.599-14.693,84.446-15.34,146.833-45.159c3.022-1.428,5.879-3.267,9.114-4.222c-2.04,3.996-41.137,28.496-99.74,44.496
	c-18.681,5.067-67.229,17.443-78.372,33.063C737.761,619.083,689.408,695.24,689.408,695.24c1.389-1.468,3.117-2.525,5.098-2.991
	c6.514-4.597,39.126-18.099,66.425-26.679c48.896-31.252,91.73-122.204,158.59-154.96c-0.402,1.255-1.294,2.209-2.383,2.904
	c-57.434,38.118-94.081,114.669-124.651,143.329c28.358-8.495,79.382-17.85,110.835-17.163c0.016,0.3,0.032,0.907,0.039,1.215
	c-35.338,4.252-89.516,21.645-105.319,27.602c1.081,0.268,2.17,0.544,3.275,0.821c6.119,3.478,3.164,2.054,7.039,3.78l0.158,0.402
	c33.926,19.749,75.19,62.47,80.913,77.63c-2.241-1.081-3.685-3.141-5.382-4.845c-22.622-22.895-17.921-16.792-25.914-24.241
	c-0.292-0.11-0.892-0.339-1.191-0.458c-9.945-10.506-46.025-32.176-46.816-32.731c-0.276-0.087-0.829-0.253-1.105-0.339
	c-2.013-1.434-23.526-13.391-31.563-12.531c-16.182,6.088-35.619,14.787-35.619,14.787c-0.339,0.331-1.01,0.986-1.349,1.31
	c-0.442,0.016-1.326,0.032-1.768,0.039c-0.331,0.347-0.986,1.026-1.318,1.365c-32.538,12.515-65.492,38.534-69.929,41.869
	c-0.447,1.967-2.972,2.963-4.128,4.442c-11.5,14.706-48.913,84.421-54.3,94.056c-63.25,113.115-53.099,189.89-52.468,272.261
	c4.719-6.614,7.97-14.919,12.032-22.032c45.138-79.031,105.402-126.094,104.364-304.965c4.65,0,14.926,79.746-5.622,157.922
	c103.754-135.661,164.057-176.539,150.737-161.387c-52.898,60.17-93.724,113.377-95.437,118.752
	c12.538-2.587,44.56-19.881,101.723-11.491c0.016,0.45,0.055,1.349,0.079,1.807c-29.412,0.147-54.315,6.092-57.303,7.654
	c-6.422,0.797-36.937,9.567-59.261,26.283c-10.042,7.52-14.679,15.371-41.155,55.699c-0.858,1.307-20.854,31.723-22.641,34.833
	c-103.278,173.992-86.988,142.73-85.836,238.556c54.235-74.663,130.662-155.585,134.349-158.535
	c5.76-8.111,56.337-56.281,63.125-62.122c0.14-0.409,0.28-0.818,0.42-1.228c0.32-0.174,0.64-0.348,0.961-0.522
	c37.009-36.433,65.649-56.861,67.997-62.799l0.3,0.095c0,0,38.377-56.878,102.557-189.767
	c13.032-31.106,21.242-91.657,35.169-161.02c13.463-64.736,33.735-109.296,38.294-110.077
	c-31.476,64.815-36.77,147.452-50.612,221.606c36.229-80.534,65.143-145.114,68.729-146.714c0,0-6.156,15.081-42.887,108.073
	c19.299-19.94,44.86-35.727,52.561-38.476c-0.821,2.47-3.417,3.417-5.318,4.869c-60.142,41.806-58.786,66.891-95.25,148.427
	c39.934-35.622,94.922-67.93,102.194-69.605c-1.231,2.438-3.945,3.401-5.989,4.995c-25.645,17.967-50.525,37.071-73.937,57.887
	c-49.129,42.404-25.878,29.073-87.999,140.26c61.508-50.877,142.025-101.267,148.963-102.944c-1.428,2.517-4.198,3.701-6.384,5.429
	c-23.262,16.744-46.067,34.143-68.177,52.395c32.577-1.626,61.515,12.072,62.701,16.01c-22.684-7.649-46.948-16.08-75.72-5.042
	c-32.089,25.046-106.566,96.947-106.566,96.947c2.817-0.087,5.476-1.065,8.222-1.578c68.002-12.811,129.222-1.586,133.852,7.386
	c-43.216-11.777-122.192-0.265-165.999,19.767c-3.751,1.197-36.033,35.643-37.963,38.05c-1,0.143-59.299,65.16-65.806,73.495
	c2.419-3.099,142.916-53.276,237.763-48.45c0,0.363,0,1.097,0,1.46c-35.139-1.095-113.045,19.578-147.724,30.759
	c40.711,10.203,72.906,45.923,75.436,54.131c-1.009-0.707-64.915-61.635-113.857-41.332c-24.612,8.735-48.884,18.662-71.799,31.248
	c-6.214,3.028-2.521-3.052-37.923,42.784c67.911-13.647,121.083,32.993,128.715,65.194c-2.344-1.065-3.093-3.653-4.387-5.642
	c-26.144-43.065-104.041-68.213-144.418-30.632c-4.469,3.813-29.041,34.693-36.937,53.863
	c-22.969,50.923-13.027,52.81-12.215,344.143c-21.36,0-42.729,0-64.097,0c0.147-385.807,21.044-320.447-34.641-387.471
	c-11.753-14.4-93.005-41.107-143.605,20.587c-1.515,1.878-2.817,4.111-5.121,5.137c0.808-5.063,15.131-27.326,37.363-40.519
	c39.568-24.511,82.257-13.39,88.74-12.767c-6.473-6.58-55.141-55.284-63-58.005c-8.719-1.91-17.597-3.583-26.568-3.464
	c-81.401-3.222-143.931,24.104-145.546,24.604c1.048-5.037,37.028-23.396,95.14-35.067c-76.992-29.39-100.881-70.658-166.252-62.172
	c1.833-4.352,34.332-10.169,59.576,0.032c72.452,25.871,79.731,49.807,159.229,54.123
	c-25.976-17.898-114.194-95.403-266.252-150.762c-1.002-0.253-1.673-1.018-2.288-1.768c10.281,1.442,92.34,22.788,170.45,65.218
	c-14.375-15.173-42.198-42.334-83.43-90.579c-35.911-44.216-84.036-45.767-117.013-77.804c-1.988-1.957-4.253-3.78-5.421-6.384
	c2.912,1.026,4.963,3.433,7.433,5.169c23.679,17.779,48.695,23.003,81.489,38.547c-29.202-36.728-92.754-122.659-103.749-161.407
	c2.628,1.318,3.298,4.482,4.758,6.81c39.715,73.115,110.538,153.905,167.491,213.857
	c140.025,142.304,113.751,102.237,176.684,153.137c-11.607-18.438-39.696-68.475-40.149-69.55c-0.213-0.245-0.655-0.742-0.876-0.986
	c-2.053-4.889-1.578-2.717-16.381-29.875c0,0-42.663-86.1-88.365-122.435c-12.758-10.143,22.57-4.145,88.207,92.013
	c17.17,25.154,35.738,53.715,35.738,53.715c1.737,3.923,13.39,20.964,14.74,23.57l0.331,0.103
	c3.559,6.636,8.806,12.223,12.239,18.946l0.292,0.047c0.725,1.196,6.695,10.583,7.867,11.828c0.955,1.791,1.981,3.551,2.951,5.35
	c-4.684-15.241-19.905-92.193-24.517-113.825c-2.686-14.349-10.195-38.854-10.195-38.854c-0.45-0.9-0.9-1.783-1.349-2.651
	c-0.239-1.535,0.137-0.447-2.32-7.086c-0.071-1.018-0.126-2.02-0.181-3.006c3.808,1.7,0.921-1.491,6.81,9.414
	c0.055,0.347,0.174,1.042,0.229,1.389c16.309,29.463,33.982,128.73,58.487,188.228c11.068,28.181,56.191,70.468,76.146,93.341
	c0,0,2.489-173.81,1.483-178.23c-3.473-33.021-15.662-64.656-38.657-89.024c-0.031-0.021-34.825-34.768-40.243-38.657
	c-3.964-6.053-62.059-55.114-65.683-59.008c-35.6-38.241-107.224-19.145-185.971-36.692c-22.619-5.902-41.856-19.905-45.072-25.693
	c3.219,0.884,5.516,3.456,8.38,5.026c47.444,29.107,101.926,11.491,178.033,18.67c-5.303-2.93-22.777-18.407-28.746-22.386
	c-0.039-0.182-0.11-0.552-0.15-0.742c-67.183-49.253-48.561-52.761-112.973-64.16c-46.556-9.119-92.868-14.469-134.981-46.367
	c-1.87-1.539-4.308-2.754-5.003-5.263c1.27,0.458,2.533,0.994,3.685,1.728c57.494,38.117,132.092,33.977,156.901,41.569
	C140.811,698.836,60.359,651.623,34.334,590.9c1.294,0.402,2.162,1.42,2.754,2.588c26.646,47.219,77.296,78.594,181.434,146.091
	c-33.277-50.458-53.226-95.915-92.599-124.438c-2.028-1.586-4.742-2.596-5.784-5.137c8.283,2.176,28.511,18.903,37.647,27.736
	c42.487,44.338,59.151,92.32,106.818,133.347l-0.213,0.316c9.53,5.271,95.012,70.146,95.803,70.733
	c-25.797-39.256-36.777-81.648-62.551-128.265l-0.813,0.213c0.008-0.253,0.032-0.765,0.039-1.018
	c-1.103-1.115-18.117-25.721-36.527-40.677c-55.115-50.784-131.739-94.094-173.401-140.536
	c-18.882-20.908-28.909-37.14-30.577-42.721c2.004,0.466,2.73,2.462,3.772,3.977c28.477,45.54,118.599,105.062,164.816,134.436
	c-41.261-60.793-82.202-148.569-135.304-201.792c-0.253-0.529-0.75-1.57-1.002-2.091c23.404,6.906,102.978,135.047,115.056,154.739
	c57.253,91.123,59.519,68.223,84.976,100.616c-29.556-84.578-10.105-58.207-60.594-121.069
	c-12.938-15.864-44.943-52.656-56.38-97.231c2.62,0.726,2.604,3.953,3.724,6.005c16.619,39.454,44.723,73.878,83.666,115.048
	c-9.64-31.423-22.205-89.358-25.74-118.694c3.078,0.78-0.678-1.576,15.947,57.761c8.487,29.172,20.808,67.877,20.808,67.877
	c0.355-4.916,0.276-9.848,0.292-14.764c2.731-51.865,16.534-93.236,20.737-94.303c-18.455,63.664-13.941,121.961-6.25,149.397
	c21.179,61.952,52.656,126.735,52.656,126.735c0.395,0.497,0.805,1.002,1.207,1.523c1.839,5.279,4.924,10.006,7.204,15.087
	c0.647,1.326,0.442,2.983,1.405,4.174c-3.174-13.478-5.571-42.224-5.571-42.224c-3.314-84.346,4.068-117.143,19.238-194.193
	l1.736-0.087c-7.239,58.825-4.086,23.43-9.264,90.027c-3.857,30.646,2.145,94.048,1.823,97.831
	c1.187-10.367,4.144-16.254,4.671-19.451c0.501-1.031,5.586-14.073,5.61-14.14c18.39-40.807,46.629-71.414,58.14-92.449
	c1.507-2.509,1.917-6.534,5.445-6.952c-1.124,7.136-9.763,23.579-12.657,26.474c-5.929,14.857-56.407,71.539-52.926,142.492
	c0.541,11.034,3.366,21.3,4.777,32.117c6.091,14.748,17.325,71.243,71.657,111.395c0.047,0.166,0.15,0.513,0.205,0.679
	c3.368,2.196,43.907,38.601,46.895,42.981c0.166,0.047,0.505,0.134,0.671,0.182c6.821,8.744,3.347,2.449,19.419,24.682
	c-0.113-0.156,0.178-13.411,0.181-13.603c0.731-52.501,4.965-52.332-15.23-101.031c-25.547-61.601-50.618-74.279-69.982-97.756
	c-14.629-17.735-18.621-35.676-17.62-35.69c0.521-0.008,1.57-0.008,2.099-0.008c7.493,16.504,18.536,28.508,20.737,29.63
	c0.047,0.174,0.134,0.529,0.174,0.702c1.405,0.742,2.565,1.823,3.425,3.172c1.657,1.288,31.832,28.002,33.189,29.624
	c1.739,2.078,3.383,4.075,5.281,5.81c-10.106-57.711-5.897-87.976-0.636-129.547c5.358-42.345,7.053-38.037,9.045-37.972
	c-0.206,42.276-20.237,109.089,16.53,195.072c1.989,4.651,10.937,24.582,14.7,29.13c0.072-0.188,2.288-170.99,2.275-171.215
	c-2.572-45.444-59.101-163.426-79.187-204.335c-28.505-58.055-200.589-112.933-332.091-102.01c-0.024-0.355-0.055-1.065-0.071-1.412
	c50.077-7.814,87.658-4.779,134.073-0.079c-52.514-33.247-93.959-85.017-95.7-92.054c0.978,0.513,1.957,1.105,2.667,1.973
	c29.241,35.688,87.299,83.942,125.48,94.8c9.696,3.006,82.013,14.077,141.743,52.561c-9.57-19.648-59.434-105.981-64.689-112.239
	c-30.305-32.083-76.248-37.115-134.862-61.888c-5.869-2.682-32.516-16.171-35.753-21.605c3.369,1.105,6.234,3.259,9.351,4.892
	c42.658,24.149,90.259,27.302,147.109,55.678c-38.936-61.14-65.993-93.678-89.403-118.268c-2.549-2.927-6.313-4.948-7.812-8.68
	c6.662,3.019,57.786,46.734,132.771,157.627c-14.15-66.755-5.16-42.848-37-231.911c4.684,2.238,17.653,74.404,18.567,79.469
	c35.77,202.583,17.011,145.52,84.937,258.945c-0.121-0.789-22.423-116.254-18.07-218.418c0,0,14.025,207.293,63.15,301.635
	c1.798,3.693,37.252,73.91,38.089,81.702c-0.982-16.981,6.818-175.208,2.857-201.461C485.691,198.005,379.81,73.835,377.483,66.941
	c5.365,2.226,57.979,64.555,101.413,155.67c-7.321-65.428-3.286-138.063,5.626-186.058c0.355,0.032,1.073,0.095,1.428,0.134
	c-20.119,182.828,18.306,238.243,35.28,300.806C522.639,301.425,528.845,55.211,531.141,30.532z"/>
</svg>
